# Blender v3.1.2 OBJ File: ''
# www.blender.org
mtllib ene2.mtl
o body_球.003
v 0.619157 3.970942 -0.687777
v 1.200132 3.530771 -0.748115
v 0.521857 3.659177 -0.901262
v 0.714785 4.173462 -0.368275
v 0.794182 4.235904 0.008606
v 0.995736 4.120274 -0.304838
v 0.379491 2.907167 -0.901262
v 0.875229 2.483132 -0.570562
v 0.356100 2.581410 -0.687777
v 1.171857 3.146642 -0.810462
v 0.437698 3.285629 -0.976228
v 1.138287 3.872664 -0.570563
v 0.652035 2.304762 -0.304838
v 0.371084 2.357950 -0.368274
v 1.057767 2.778761 -0.748114
v 1.430978 2.708107 -0.151690
v 1.160873 2.429056 -0.114079
v 1.573343 3.460117 -0.151690
v 1.575818 3.070167 -0.164898
v 1.150325 4.091008 -0.057791
v 1.423930 3.818588 -0.114080
v 0.806624 2.275496 -0.057791
v 1.045704 2.450859 0.414271
v 0.744295 2.287296 0.228150
v 1.280503 2.736594 0.538632
v 1.422868 3.488604 0.538632
v 1.087996 4.102808 0.228150
v 1.412946 3.101001 0.582303
v 1.308762 3.840391 0.414270
v 0.778648 3.221083 0.993439
v 0.694489 2.847534 0.918473
v 0.860245 3.925301 0.704987
v 0.836854 3.599544 0.918473
v 0.845261 4.148761 0.385484
v 0.597188 2.535769 0.704987
v 0.501560 2.333249 0.385485
v 0.078058 2.634047 0.587774
v 0.158579 3.727952 0.765325
v 0.044488 3.360069 0.827673
v 0.341116 4.023579 0.587773
v 0.220609 2.386437 0.322049
v 0.016213 2.975942 0.765325
v 0.564310 4.201949 0.322048
v -0.359473 3.436544 0.182109
v 0.055473 4.077655 0.131290
v 0.066020 2.415703 0.075002
v -0.356998 3.046595 0.168901
v -0.214633 3.798605 0.168901
v 0.409721 4.231215 0.075002
v -0.207585 2.688123 0.131290
v 0.128349 2.403903 -0.210939
v -0.206523 3.018108 -0.521422
v -0.064158 3.770118 -0.521421
v 0.472050 4.219415 -0.210939
v -0.092417 2.666320 -0.397060
v -0.196600 3.405710 -0.565092
v 0.170641 4.055852 -0.397060
v 0.042676 0.760939 -0.513681
v 0.584013 0.988642 -0.558934
v 0.432023 0.687230 -0.425771
v 0.217672 1.836957 -0.673794
v 0.687376 1.358554 -0.605695
v 0.136757 1.462795 -0.730019
v 0.305734 2.150472 -0.513681
v 0.598248 2.315718 -0.226477
v 0.695080 2.076762 -0.425771
v 0.254547 0.500205 -0.226476
v 0.043834 0.540097 -0.274054
v 0.075306 1.084947 -0.673794
v 0.726378 1.740652 -0.558934
v 0.370489 0.478256 -0.041192
v 0.863921 0.935652 -0.111616
v 1.006286 1.687661 -0.111616
v 0.646255 0.646673 -0.083408
v 0.990347 1.301198 -0.121521
v 0.909313 2.036205 -0.083409
v 0.893431 1.709027 0.406126
v 0.751064 0.957017 0.406126
v 0.559879 0.663025 0.312855
v 0.868192 1.324323 0.438879
v 0.714190 2.293769 -0.041192
v 0.822937 2.052558 0.312854
v 0.323742 0.487106 0.173264
v 0.223492 0.726708 0.530893
v 0.392469 1.414385 0.747230
v 0.667444 2.302619 0.173263
v 0.486550 2.116241 0.530892
v 0.141690 0.521571 0.291266
v 0.311554 1.040222 0.691006
v 0.453919 1.792232 0.691006
v 0.485392 2.337083 0.291265
v 0.097203 2.189950 0.442982
v -0.165854 0.800416 0.442982
v -0.069023 0.561462 0.243688
v -0.197152 1.136527 0.576145
v -0.054787 1.888537 0.576145
v -0.184964 0.583412 0.058404
v -0.158151 1.518625 0.622906
v -0.461121 1.575981 0.138733
v -0.477061 1.189518 0.128828
v -0.117030 2.230506 0.100619
v -0.334695 1.941527 0.128828
v -0.380087 0.840973 0.100620
v 0.158736 2.398923 0.058403
v -0.293711 0.824621 -0.295643
v -0.221839 1.920162 -0.388914
v -0.338967 1.552855 -0.421667
v -0.030653 2.214154 -0.295643
v -0.138218 0.574562 -0.156052
v -0.364205 1.168153 -0.388914
v 0.387535 2.355609 -0.274054
v 0.274679 2.376974 0.243688
v -0.049628 0.456501 -0.913884
v 0.024297 0.625076 -0.617883
v 0.423816 0.393778 -0.694260
v -0.125935 0.031486 -1.039448
v 0.815922 -0.091843 -0.777140
v 0.052535 0.438460 -0.324836
v 0.018546 0.005971 -0.206408
v -0.420908 0.501183 -0.544462
v -0.516037 0.073031 -0.541077
v 0.108228 0.404410 0.966409
v 0.468819 0.309235 0.597140
v 0.101686 0.588217 0.670315
v 0.022324 -0.018914 1.092192
v 0.006559 0.425038 0.377360
v -0.121477 0.010140 0.259152
v 0.802970 -0.211080 0.521305
v -0.354976 0.520680 0.746770
v -0.501490 0.107409 0.757587
v 0.205484 2.390074 -0.156052
vt 0.260173 0.048071
vt 0.191486 0.108817
vt 0.200577 0.012748
vt 0.600176 0.784343
vt 0.626532 0.720714
vt 0.652888 0.784343
vt 0.063537 0.011768
vt 0.000000 0.119787
vt 0.006958 0.046259
vt 0.121688 0.103985
vt 0.131527 0.000000
vt 0.675232 0.838286
vt 0.577832 0.838286
vt 0.780121 0.400764
vt 0.726161 0.475778
vt 0.726161 0.423066
vt 0.054447 0.107837
vt 0.054447 0.234779
vt 0.000000 0.216945
vt 0.191486 0.235760
vt 0.121688 0.241386
vt 0.690162 0.747070
vt 0.744104 0.769414
vt 0.780121 0.498164
vt 0.688888 0.513051
vt 0.253215 0.121599
vt 0.613849 0.567036
vt 0.636176 0.513051
vt 0.063537 0.318234
vt 0.253215 0.218756
vt 0.200577 0.319214
vt 0.690162 0.694358
vt 0.726205 0.603142
vt 0.711249 0.567036
vt 0.131527 0.331717
vt 0.744104 0.672014
vt 0.456845 0.318538
vt 0.397706 0.240748
vt 0.465122 0.234331
vt 0.319685 0.319330
vt 0.266508 0.218315
vt 0.327962 0.235124
vt 0.652888 0.657085
vt 0.598946 0.603142
vt 0.544977 0.498164
vt 0.388748 0.331892
vt 0.675232 0.603142
vt 0.598902 0.475778
vt 0.519946 0.119642
vt 0.519946 0.216851
vt 0.327962 0.108114
vt 0.397706 0.103273
vt 0.577833 0.603142
vt 0.544978 0.400764
vt 0.598902 0.423066
vt 0.465122 0.107322
vt 0.600176 0.657085
vt 0.388748 0.000000
vt 0.508961 0.672014
vt 0.636176 0.385792
vt 0.456845 0.011909
vt 0.266508 0.121106
vt 0.319685 0.012702
vt 0.562903 0.694358
vt 0.513611 0.046617
vt 0.613850 0.331892
vt 0.688888 0.385792
vt 0.760861 0.126659
vt 0.650773 0.054328
vt 0.746427 0.059051
vt 0.717595 0.256933
vt 0.655082 0.191423
vt 0.750736 0.196146
vt 0.562903 0.747070
vt 0.636423 0.000000
vt 0.709633 0.003615
vt 0.657326 0.121547
vt 0.508961 0.769414
vt 0.547243 0.256933
vt 0.528160 0.196146
vt 0.539281 0.003615
vt 0.519946 0.126659
vt 0.711249 0.331892
vt 0.523851 0.059051
vt 0.474493 0.337111
vt 0.428205 0.387250
vt 0.419346 0.331892
vt 0.499277 0.531107
vt 0.430972 0.454810
vt 0.508961 0.462190
vt 0.436531 0.752712
vt 0.396074 0.696420
vt 0.436531 0.679662
vt 0.795758 0.603142
vt 0.852008 0.643617
vt 0.812473 0.643617
vt 0.500257 0.394067
vt 0.472681 0.590326
vt 0.427225 0.524289
vt 0.868808 0.603142
vt 0.879962 0.671572
vt 0.332999 0.387250
vt 0.417535 0.585108
vt 0.332018 0.524289
vt 0.346478 0.331892
vt 0.327921 0.454810
vt 0.403377 0.628008
vt 0.344667 0.585108
vt 0.269427 0.531107
vt 0.270408 0.394067
vt 0.298573 0.337111
vt 0.260173 0.462190
vt 0.368119 0.668465
vt 0.311827 0.628008
vt 0.384877 0.628008
vt 0.920462 0.727846
vt 0.879962 0.711106
vt 0.010115 0.565864
vt 0.086464 0.627724
vt 0.038127 0.622973
vt 0.009323 0.428704
vt 0.068359 0.504364
vt 0.000000 0.497645
vt 0.328585 0.668465
vt 0.260173 0.679662
vt 0.868808 0.779500
vt 0.852008 0.739061
vt 0.073270 0.572071
vt 0.036663 0.369534
vt 0.072478 0.434911
vt 0.104020 0.331717
vt 0.157907 0.374285
vt 0.085000 0.374285
vt 0.795758 0.779500
vt 0.812473 0.739061
vt 0.168527 0.572071
vt 0.167735 0.434911
vt 0.784518 0.711106
vt 0.159371 0.627724
vt 0.171464 0.504364
vt 0.248919 0.497645
vt 0.240086 0.565864
vt 0.212676 0.369534
vt 0.239294 0.428704
vt 0.214140 0.622973
vt 0.260173 0.752712
vt 0.328585 0.763909
vt 0.311827 0.804366
vt 0.008833 0.861871
vt 0.089549 0.923731
vt 0.034779 0.918980
vt 0.000000 0.793653
vt 0.081184 0.730918
vt 0.077455 0.800372
vt 0.384877 0.804366
vt 0.744104 0.727846
vt 0.784518 0.671572
vt 0.080392 0.868078
vt 0.036243 0.665542
vt 0.009625 0.724711
vt 0.162455 0.923731
vt 0.176442 0.730918
vt 0.180561 0.800372
vt 0.091012 0.670293
vt 0.144900 0.627724
vt 0.163919 0.670293
vt 0.744104 0.654796
vt 0.175649 0.868078
vt 0.300630 0.735954
vt 0.260173 0.898969
vt 0.304436 0.868349
vt 0.348698 0.932333
vt 0.842536 0.322907
vt 0.760861 0.226154
vt 0.842536 0.182764
vt 0.348698 0.837729
vt 0.914439 0.850080
vt 0.829272 0.890329
vt 0.837045 0.779500
vt 0.260173 0.804366
vt 0.943661 0.446038
vt 0.830217 0.344526
vt 0.943661 0.331892
vt 0.908943 0.896563
vt 0.836248 1.000000
vt 0.259676 0.847510
vt 0.180561 0.748897
vt 0.259676 0.737617
vt 0.348698 0.837729
vt 0.437223 0.804366
vt 0.392961 0.868349
vt 0.744104 0.890329
vt 0.829272 0.850080
vt 0.823776 0.896563
vt 0.437223 0.898969
vt 0.924212 0.322907
vt 0.842536 0.226153
vt 0.924212 0.182764
vt 0.348698 0.932333
vt 0.924401 0.068619
vt 0.810957 0.170130
vt 0.760861 0.000000
vt 0.259676 0.737617
vt 0.180561 0.639004
vt 0.259676 0.627724
vt 0.751081 1.000000
vt 0.829272 0.989957
vt 0.260173 0.282630
vt 0.260173 0.282764
vt 0.508961 0.513157
vt 0.260173 0.048080
vt 0.644384 0.253318
vt 0.396074 0.735954
vt 0.920462 0.654796
vt 0.363941 0.628008
vt 0.296762 0.590326
vt 0.300630 0.696420
vt 0.143477 0.331717
vt 0.368119 0.763909
vt 0.105443 0.627724
vt 0.762802 0.309188
vt 0.780121 0.514657
vt 0.914439 0.989957
vt 0.181005 0.842451
vt 0.751877 0.779500
vt 0.844478 0.309188
vt 0.924401 0.182764
vt 0.181005 0.732558
vn 0.2788 0.4818 -0.8307
vn 0.2266 0.9521 -0.2055
vn 0.0834 -0.5504 -0.8307
vn 0.2429 0.1380 -0.9602
vn 0.2754 0.7725 -0.5721
vn -0.0260 -0.8198 -0.5721
vn 0.1757 -0.2172 -0.9602
vn 0.6075 -0.6496 -0.4571
vn 0.8487 0.0233 -0.5283
vn 0.6364 0.7042 -0.3148
vn 0.3349 -0.8881 -0.3148
vn 0.7815 -0.3319 -0.5283
vn 0.8029 0.3826 -0.4571
vn 0.3563 0.9275 -0.1131
vn 0.4114 -0.9026 0.1269
vn 0.9098 -0.3562 0.2130
vn 0.9139 0.3616 0.1843
vn 0.3837 0.9223 0.0456
vn 0.7185 -0.6706 0.1843
vn 0.9770 -0.0010 0.2130
vn 0.7129 0.6897 0.1269
vn 0.4855 -0.2759 0.8296
vn 0.5468 0.4311 0.7177
vn 0.2929 0.9395 0.1775
vn 0.3514 -0.6011 0.7177
vn 0.5527 0.0793 0.8296
vn 0.4600 0.7376 0.4943
vn 0.1586 -0.8547 0.4943
vn -0.2788 -0.4818 0.8307
vn -0.1757 0.2172 0.9602
vn 0.0260 0.8198 0.5721
vn -0.2754 -0.7725 0.5721
vn -0.2429 -0.1380 0.9602
vn -0.0834 0.5504 0.8307
vn 0.1371 0.9690 0.2055
vn -0.7815 0.3319 0.5283
vn -0.3350 0.8881 0.3148
vn -0.3349 0.8881 0.3148
vn -0.6364 -0.7042 0.3148
vn -0.8487 -0.0233 0.5283
vn -0.6075 0.6496 0.4571
vn 0.0074 0.9936 0.1131
vn -0.8029 -0.3826 0.4571
vn -0.7129 -0.6897 -0.1269
vn -0.9770 0.0010 -0.2130
vn -0.7185 0.6706 -0.1843
vn -0.0201 0.9988 -0.0456
vn -0.9139 -0.3616 -0.1843
vn -0.9098 0.3562 -0.2130
vn -0.4114 0.9026 -0.1269
vn -0.3514 0.6011 -0.7177
vn 0.0708 0.9816 -0.1775
vn -0.5468 -0.4311 -0.7177
vn -0.4855 0.2759 -0.8296
vn -0.1586 0.8547 -0.4943
vn -0.4600 -0.7376 -0.4943
vn -0.5527 -0.0793 -0.8296
vn -0.1860 -0.9825 0.0000
vn 0.1150 -0.4494 -0.8859
vn 0.2362 0.0942 -0.9671
vn 0.2816 0.6793 -0.6777
vn 0.0138 -0.7352 -0.6777
vn 0.1854 -0.1741 -0.9671
vn 0.2713 0.3762 -0.8859
vn 0.4414 -0.8162 -0.3729
vn 0.7956 -0.2896 -0.5321
vn 0.8302 0.2704 -0.4875
vn 0.6739 -0.5552 -0.4875
vn 0.8464 -0.0213 -0.5321
vn 0.7092 0.5984 -0.3729
vn 0.9486 0.2480 0.1965
vn 0.7923 -0.5776 0.1965
vn 0.9756 -0.0457 0.2146
vn 0.7997 0.5812 0.1503
vn 0.5319 -0.8333 0.1503
vn 0.9248 -0.3140 0.2146
vn 0.4008 -0.5035 0.7654
vn 0.5483 0.0352 0.8356
vn 0.5003 0.6379 0.5855
vn 0.2325 -0.7766 0.5855
vn 0.4975 -0.2331 0.8356
vn 0.5571 0.3221 0.7654
vn -0.0138 0.7352 0.6777
vn -0.2816 -0.6793 0.6777
vn -0.2362 -0.0942 0.9671
vn -0.1150 0.4494 0.8859
vn -0.2713 -0.3762 0.8859
vn -0.2713 -0.3763 0.8859
vn -0.1854 0.1741 0.9671
vn -0.7092 -0.5984 0.3729
vn -0.8464 0.0213 0.5321
vn -0.6739 0.5552 0.4875
vn -0.8302 -0.2704 0.4875
vn -0.7956 0.2896 0.5321
vn -0.4414 0.8162 0.3729
vn -0.9486 -0.2480 -0.1965
vn -0.9248 0.3140 -0.2146
vn -0.5319 0.8333 -0.1503
vn -0.7997 -0.5812 -0.1503
vn -0.9756 0.0457 -0.2146
vn -0.7923 0.5776 -0.1965
vn -0.5571 -0.3221 -0.7654
vn -0.4975 0.2331 -0.8356
vn -0.2325 0.7766 -0.5855
vn -0.5003 -0.6379 -0.5855
vn -0.5483 -0.0352 -0.8356
vn -0.4008 0.5035 -0.7654
vn 0.1860 0.9825 0.0000
vn 0.3476 0.7748 -0.5281
vn 0.2941 0.3866 -0.8741
vn 0.5130 0.7456 0.4254
vn 0.5750 0.3370 0.7455
vn -0.1414 0.8288 0.5414
vn -0.1191 -0.9928 -0.0097
vn -0.1184 -0.9929 -0.0099
vn -0.4873 0.2660 0.8317
vn -0.3067 0.8580 -0.4120
vn -0.7360 0.3100 -0.6019
vn 0.6020 0.6843 0.4115
vn 0.7217 0.0585 0.6897
vn 0.4374 0.7177 -0.5418
vn 0.3311 0.3409 -0.8799
vn -0.2017 0.8820 -0.4258
vn -0.2318 -0.9727 0.0061
vn -0.2345 -0.9721 0.0066
vn -0.6953 0.3871 -0.6056
vn -0.0372 0.8487 0.5276
vn -0.3894 0.1618 0.9068
vn 0.3350 -0.8881 -0.3148
vn 0.2713 0.3763 -0.8859
vn 0.4336 0.1828 -0.8824
vn 0.7070 0.1346 0.6943
vn -0.1276 -0.9918 -0.0083
vn -0.4081 0.0979 0.9077
vn -0.6887 0.1474 -0.7099
vn 0.6106 0.2844 0.7392
vn 0.4497 0.1136 -0.8859
vn -0.2389 -0.9710 0.0074
vn -0.6686 0.2184 -0.7109
vn -0.4478 0.3370 0.8282
usemtl マテリアル
s 1
f 1/1/1 2/2/1 3/3/1
f 4/4/2 5/5/2 6/6/2
f 7/7/3 8/8/3 9/9/3
f 3/3/4 10/10/4 11/11/4
f 4/4/5 12/12/5 1/13/5
f 9/14/6 13/15/6 14/16/6
f 11/11/7 15/17/7 7/7/7
f 8/8/8 16/18/8 17/19/8
f 10/10/9 18/20/9 19/21/9
f 12/12/10 20/22/10 21/23/10
f 8/24/11 22/25/11 13/15/11
f 10/10/12 16/18/12 15/17/12
f 12/26/13 18/20/13 2/2/13
f 6/6/14 5/5/14 20/22/14
f 22/25/15 23/27/15 24/28/15
f 19/21/16 25/29/16 16/18/16
f 21/30/17 26/31/17 18/20/17
f 20/22/18 5/5/18 27/32/18
f 16/33/19 23/27/19 17/34/19
f 18/20/20 28/35/20 19/21/20
f 20/22/21 29/36/21 21/23/21
f 25/37/22 30/38/22 31/39/22
f 26/40/23 32/41/23 33/42/23
f 27/32/24 5/5/24 34/43/24
f 25/44/25 35/45/25 23/27/25
f 26/40/26 30/38/26 28/46/26
f 27/32/27 32/47/27 29/36/27
f 24/28/28 35/45/28 36/48/28
f 31/39/29 37/49/29 35/50/29
f 30/38/30 38/51/30 39/52/30
f 34/43/31 40/53/31 32/47/31
f 36/48/32 37/54/32 41/55/32
f 30/38/33 42/56/33 31/39/33
f 32/41/34 38/51/34 33/42/34
f 34/43/35 5/5/35 43/57/35
f 38/51/36 44/58/36 39/52/36
f 43/57/37 45/59/37 40/53/38
f 37/54/39 46/60/39 41/55/39
f 42/56/40 44/58/40 47/61/40
f 40/62/41 48/63/41 38/51/41
f 43/57/42 5/5/42 49/64/42
f 42/56/43 50/65/43 37/49/43
f 50/66/44 51/67/44 46/60/44
f 44/68/45 52/69/45 47/70/45
f 45/71/46 53/72/46 48/73/46
f 49/64/47 5/5/47 54/74/47
f 47/70/48 55/75/48 50/76/48
f 48/73/49 56/77/49 44/68/49
f 49/64/50 57/78/50 45/59/50
f 53/72/51 1/79/51 3/80/51
f 54/74/52 5/5/52 4/4/52
f 52/69/53 9/81/53 55/75/53
f 56/77/54 3/80/54 11/82/54
f 57/78/55 4/4/55 1/13/55
f 55/83/56 14/16/56 51/67/56
f 56/77/57 7/84/57 52/69/57
f 46/60/58 51/67/58 24/28/58
f 58/85/59 59/86/59 60/87/59
f 61/88/60 62/89/60 63/90/60
f 64/91/61 65/92/61 66/93/61
f 58/94/62 67/95/62 68/96/62
f 69/97/63 62/89/63 59/86/63
f 64/98/64 70/99/64 61/88/64
f 60/100/65 71/101/65 67/95/65
f 62/89/66 72/102/66 59/86/66
f 66/103/67 73/104/67 70/99/67
f 60/87/68 72/102/68 74/105/68
f 62/89/69 73/104/69 75/106/69
f 65/107/70 76/108/70 66/103/70
f 76/108/71 77/109/71 73/104/71
f 74/105/72 78/110/72 79/111/72
f 73/104/73 80/112/73 75/106/73
f 81/113/74 82/114/74 76/115/74
f 71/101/75 79/116/75 83/117/75
f 72/102/76 80/112/76 78/110/76
f 78/118/77 84/119/77 79/120/77
f 77/121/78 85/122/78 80/123/78
f 86/124/79 87/125/79 82/114/79
f 83/117/80 84/126/80 88/127/80
f 78/118/81 85/122/81 89/128/81
f 82/129/82 90/130/82 77/121/82
f 91/131/83 92/132/83 87/133/83
f 88/127/84 93/134/84 94/135/84
f 85/122/85 95/136/85 89/128/85
f 87/133/86 96/137/86 90/130/86
f 88/127/58 97/138/58 68/96/58
f 89/128/87 93/139/88 84/119/87
f 85/122/89 96/137/89 98/140/89
f 93/134/90 97/138/90 94/135/90
f 95/136/91 99/141/91 100/142/91
f 96/137/92 101/143/92 102/144/92
f 95/136/93 103/145/93 93/139/93
f 96/137/94 99/141/94 98/140/94
f 92/146/95 104/147/95 101/148/95
f 100/149/96 105/150/96 103/151/96
f 99/152/97 106/153/97 107/154/97
f 104/147/98 108/155/98 101/148/98
f 103/156/99 109/157/99 97/138/99
f 99/152/100 110/158/100 100/149/100
f 101/159/101 106/153/101 102/160/101
f 110/158/102 58/161/102 105/150/102
f 107/154/103 61/162/103 63/163/103
f 108/164/104 111/165/104 64/166/104
f 105/167/105 68/96/105 109/157/105
f 107/154/106 69/168/106 110/158/106
f 106/153/107 64/166/107 61/162/107
f 112/169/108 86/124/108 65/92/108
f 113/170/109 114/171/109 115/172/109
f 116/173/110 115/174/110 117/175/110
f 115/172/111 114/171/111 118/176/111
f 115/177/112 119/178/112 117/179/112
f 118/176/113 114/171/113 120/180/113
f 116/181/114 119/182/114 121/183/115
f 118/184/116 121/185/116 119/178/116
f 120/180/117 114/171/117 113/170/117
f 121/186/118 113/187/118 116/188/118
f 122/189/119 123/190/119 124/191/119
f 125/192/120 123/193/120 122/194/120
f 123/190/121 126/195/121 124/191/121
f 127/196/122 123/197/122 128/198/122
f 126/195/123 129/199/123 124/191/123
f 125/200/124 127/201/124 128/202/125
f 130/203/126 126/204/126 127/205/126
f 129/199/127 122/189/127 124/191/127
f 130/206/128 122/194/128 129/207/128
f 1/1/1 12/26/1 2/2/1
f 7/7/3 15/17/3 8/8/3
f 3/3/4 2/2/4 10/10/4
f 4/4/5 6/6/5 12/12/5
f 9/14/6 8/24/6 13/15/6
f 11/11/7 10/10/7 15/17/7
f 8/8/8 15/17/8 16/18/8
f 10/10/9 2/2/9 18/20/9
f 12/12/10 6/6/10 20/22/10
f 8/24/11 17/34/129 22/25/11
f 10/10/12 19/21/12 16/18/12
f 12/26/13 21/30/13 18/20/13
f 22/25/15 17/34/15 23/27/15
f 19/21/16 28/35/16 25/29/16
f 21/30/17 29/208/17 26/31/17
f 16/33/19 25/44/19 23/27/19
f 18/20/20 26/31/20 28/35/20
f 20/22/21 27/32/21 29/36/21
f 25/37/22 28/46/22 30/38/22
f 26/40/23 29/209/23 32/41/23
f 25/44/25 31/210/25 35/45/25
f 26/40/26 33/42/26 30/38/26
f 27/32/27 34/43/27 32/47/27
f 24/28/28 23/27/28 35/45/28
f 31/39/29 42/56/29 37/49/29
f 30/38/30 33/42/30 38/51/30
f 34/43/31 43/57/31 40/53/31
f 36/48/32 35/45/32 37/54/32
f 30/38/33 39/52/33 42/56/33
f 32/41/34 40/62/34 38/51/34
f 38/51/36 48/63/36 44/58/36
f 43/57/37 49/64/37 45/59/37
f 37/54/39 50/66/39 46/60/39
f 42/56/40 39/52/40 44/58/40
f 40/62/41 45/211/41 48/63/41
f 42/56/43 47/61/43 50/65/43
f 50/66/44 55/83/44 51/67/44
f 44/68/45 56/77/45 52/69/45
f 45/71/46 57/212/46 53/72/46
f 47/70/48 52/69/48 55/75/48
f 48/73/49 53/72/49 56/77/49
f 49/64/50 54/74/50 57/78/50
f 53/72/51 57/212/51 1/79/51
f 52/69/53 7/84/53 9/81/53
f 56/77/54 53/72/54 3/80/54
f 57/78/55 54/74/55 4/4/55
f 55/83/56 9/14/56 14/16/56
f 56/77/57 11/82/57 7/84/57
f 51/67/58 14/16/58 24/28/58
f 14/16/58 13/15/58 24/28/58
f 13/15/58 22/25/58 24/28/58
f 24/28/58 36/48/58 41/55/58
f 41/55/58 46/60/58 24/28/58
f 58/85/59 69/97/59 59/86/59
f 61/88/60 70/99/60 62/89/60
f 64/91/61 111/213/61 65/92/61
f 58/94/62 60/100/62 67/95/62
f 69/97/63 63/90/63 62/89/63
f 64/98/64 66/103/130 70/99/64
f 60/100/65 74/214/65 71/101/65
f 62/89/66 75/106/66 72/102/66
f 66/103/67 76/108/67 73/104/67
f 60/87/68 59/86/68 72/102/68
f 62/89/69 70/99/69 73/104/69
f 65/107/70 81/215/70 76/108/70
f 76/108/71 82/216/71 77/109/71
f 74/105/72 72/102/72 78/110/72
f 73/104/73 77/109/73 80/112/73
f 81/113/74 86/124/74 82/114/74
f 71/101/75 74/214/75 79/116/75
f 72/102/76 75/106/76 80/112/76
f 78/118/77 89/128/77 84/119/77
f 77/121/78 90/130/78 85/122/78
f 86/124/79 91/217/79 87/125/79
f 83/117/80 79/116/80 84/126/80
f 78/118/81 80/123/81 85/122/81
f 82/129/82 87/133/82 90/130/82
f 91/131/83 112/218/83 92/132/83
f 88/127/84 84/126/84 93/134/84
f 85/122/85 98/140/85 95/136/85
f 87/133/86 92/132/86 96/137/86
f 68/96/58 67/95/58 88/127/58
f 67/95/58 71/101/58 88/127/58
f 71/101/58 83/117/58 88/127/58
f 88/127/58 94/135/58 97/138/58
f 97/138/58 109/157/58 68/96/58
f 89/128/87 95/136/88 93/139/88
f 85/122/89 90/130/89 96/137/89
f 93/134/90 103/156/90 97/138/90
f 95/136/91 98/140/91 99/141/91
f 96/137/92 92/132/92 101/143/92
f 95/136/93 100/142/93 103/145/93
f 96/137/94 102/144/94 99/141/94
f 92/146/95 112/169/95 104/147/95
f 100/149/96 110/158/96 105/150/96
f 99/152/97 102/160/97 106/153/97
f 104/147/98 131/219/98 108/155/98
f 103/156/99 105/167/99 109/157/99
f 99/152/100 107/154/100 110/158/100
f 101/159/101 108/164/101 106/153/101
f 110/158/102 69/168/102 58/161/102
f 107/154/103 106/153/103 61/162/103
f 108/164/104 131/220/104 111/165/104
f 105/167/105 58/94/105 68/96/105
f 107/154/106 63/163/106 69/168/106
f 106/153/107 108/164/107 64/166/107
f 65/92/108 111/213/108 131/219/108
f 131/219/108 104/147/108 112/169/108
f 112/169/108 91/217/108 86/124/108
f 86/124/108 81/113/108 65/92/108
f 65/92/108 131/219/108 112/169/108
f 116/173/131 113/221/131 115/174/131
f 115/177/132 118/184/132 119/178/132
f 116/181/114 117/222/133 119/182/114
f 118/184/134 120/223/134 121/185/134
f 121/186/135 120/224/135 113/187/135
f 125/192/136 128/225/136 123/193/136
f 127/196/137 126/226/137 123/197/137
f 125/200/124 130/227/138 127/201/124
f 130/203/139 129/228/139 126/204/139
f 130/206/140 125/192/140 122/194/140
