# Blender v3.1.2 OBJ File: ''
# www.blender.org
mtllib yazi.mtl
o Cube
v -0.427179 2.793605 0.482051
v -0.427179 -0.045541 0.482051
v -0.427179 2.793605 -0.482051
v -0.427179 -0.045541 -0.482051
v 0.427179 2.793605 0.482051
v 0.427179 -0.045541 0.482051
v 0.427179 2.793605 -0.482051
v 0.427179 -0.045541 -0.482051
v 0.000000 2.798453 1.000000
v -0.092453 2.798453 0.980785
v -0.181354 2.798453 0.923880
v -0.263285 2.798453 0.831470
v -0.335098 2.798453 0.707107
v -0.394034 2.798453 0.555570
v -0.437827 2.798453 0.382683
v -0.464795 2.798453 0.195090
v -0.473901 2.798453 -0.000000
v -0.464795 2.798453 -0.195090
v -0.437827 2.798453 -0.382683
v -0.394034 2.798453 -0.555570
v -0.335098 2.798453 -0.707107
v -0.263285 2.798453 -0.831470
v -0.181354 2.798453 -0.923880
v -0.092453 2.798453 -0.980785
v 0.000000 2.798453 -1.000000
v 0.092453 2.798453 -0.980785
v 0.181354 2.798453 -0.923880
v 0.263285 2.798453 -0.831469
v 0.335098 2.798453 -0.707107
v 0.394034 2.798453 -0.555570
v 0.437827 2.798453 -0.382684
v 0.464795 2.798453 -0.195090
v 0.473901 2.798453 0.000000
v 0.464795 2.798453 0.195090
v 0.437827 2.798453 0.382684
v 0.394034 2.798453 0.555570
v 0.335099 2.798453 0.707107
v 0.263285 2.798453 0.831470
v 0.181354 2.798453 0.923880
v 0.092453 2.798453 0.980785
v 0.000000 4.172388 0.000000
vt 0.875000 0.500000
vt 0.625000 0.750000
vt 0.625000 0.500000
vt 0.375000 1.000000
vt 0.375000 0.750000
vt 0.625000 0.000000
vt 0.375000 0.250000
vt 0.375000 0.000000
vt 0.375000 0.500000
vt 0.125000 0.750000
vt 0.125000 0.500000
vt 0.625000 0.250000
vt 0.000000 0.000000
vt 0.000000 0.000000
vt 0.000000 0.000000
vt 0.000000 0.000000
vt 0.000000 0.000000
vt 0.000000 0.000000
vt 0.000000 0.000000
vt 0.000000 0.000000
vt 0.000000 0.000000
vt 0.000000 0.000000
vt 0.000000 0.000000
vt 0.000000 0.000000
vt 0.000000 0.000000
vt 0.000000 0.000000
vt 0.000000 0.000000
vt 0.000000 0.000000
vt 0.000000 0.000000
vt 0.000000 0.000000
vt 0.000000 0.000000
vt 0.000000 0.000000
vt 0.000000 0.000000
vt 0.000000 0.000000
vt 0.000000 0.000000
vt 0.000000 0.000000
vt 0.000000 0.000000
vt 0.000000 0.000000
vt 0.000000 0.000000
vt 0.000000 0.000000
vt 0.000000 0.000000
vt 0.000000 0.000000
vt 0.000000 0.000000
vt 0.000000 0.000000
vt 0.000000 0.000000
vt 0.875000 0.750000
vt 0.625000 1.000000
vn 0.0000 1.0000 0.0000
vn 0.0000 0.0000 -1.0000
vn 1.0000 0.0000 0.0000
vn 0.0000 -1.0000 0.0000
vn -1.0000 0.0000 0.0000
vn 0.0000 0.0000 1.0000
vn -0.1657 0.5803 0.7973
vn -0.4546 0.5376 0.7102
vn -0.6571 0.4785 0.5825
vn -0.7842 0.4243 0.4528
vn -0.8612 0.3824 0.3349
vn -0.9070 0.3530 0.2297
vn -0.9328 0.3346 0.1341
vn -0.9444 0.3258 0.0441
vn -0.9444 0.3258 -0.0441
vn -0.9328 0.3346 -0.1341
vn -0.9070 0.3530 -0.2297
vn -0.8612 0.3824 -0.3349
vn -0.7842 0.4243 -0.4528
vn -0.6571 0.4785 -0.5825
vn -0.4546 0.5376 -0.7102
vn -0.1657 0.5803 -0.7973
vn 0.1657 0.5803 -0.7973
vn 0.4546 0.5376 -0.7102
vn 0.6571 0.4785 -0.5825
vn 0.7842 0.4243 -0.4528
vn 0.8612 0.3824 -0.3349
vn 0.9070 0.3530 -0.2297
vn 0.9328 0.3346 -0.1341
vn 0.9444 0.3258 -0.0441
vn 0.9444 0.3258 0.0441
vn 0.9328 0.3346 0.1341
vn 0.9070 0.3530 0.2297
vn 0.8612 0.3824 0.3349
vn 0.7842 0.4243 0.4528
vn 0.6571 0.4785 0.5825
vn 0.4546 0.5376 0.7102
vn 0.1657 0.5803 0.7973
usemtl Material
s off
f 5/1/1 3/2/1 1/3/1
f 3/2/2 8/4/2 4/5/2
f 7/6/3 6/7/3 8/8/3
f 2/9/4 8/10/4 6/11/4
f 1/3/5 4/5/5 2/9/5
f 5/12/6 2/9/6 6/7/6
f 9/13/7 41/14/7 10/15/7
f 10/15/8 41/14/8 11/16/8
f 11/16/9 41/14/9 12/17/9
f 12/17/10 41/14/10 13/18/10
f 13/18/11 41/14/11 14/19/11
f 14/19/12 41/14/12 15/20/12
f 15/20/13 41/14/13 16/21/13
f 16/21/14 41/14/14 17/22/14
f 17/22/15 41/14/15 18/23/15
f 18/23/16 41/14/16 19/24/16
f 19/24/17 41/14/17 20/25/17
f 20/25/18 41/14/18 21/26/18
f 21/26/19 41/14/19 22/27/19
f 22/27/20 41/14/20 23/28/20
f 23/28/21 41/14/21 24/29/21
f 24/29/22 41/14/22 25/30/22
f 25/30/23 41/14/23 26/31/23
f 26/31/24 41/14/24 27/32/24
f 27/32/25 41/14/25 28/33/25
f 28/33/26 41/14/26 29/34/26
f 29/34/27 41/14/27 30/35/27
f 30/35/28 41/14/28 31/36/28
f 31/36/29 41/14/29 32/37/29
f 32/37/30 41/14/30 33/38/30
f 33/38/31 41/14/31 34/39/31
f 34/39/32 41/14/32 35/40/32
f 35/40/33 41/14/33 36/41/33
f 36/41/34 41/14/34 37/42/34
f 37/42/35 41/14/35 38/43/35
f 38/43/36 41/14/36 39/44/36
f 38/43/4 39/44/4 12/17/4
f 39/44/37 41/14/37 40/45/37
f 40/45/38 41/14/38 9/13/38
f 5/1/1 7/46/1 3/2/1
f 3/2/2 7/47/2 8/4/2
f 7/6/3 5/12/3 6/7/3
f 2/9/4 4/5/4 8/10/4
f 1/3/5 3/2/5 4/5/5
f 5/12/6 1/3/6 2/9/6
f 40/45/4 9/13/4 10/15/4
f 10/15/4 11/16/4 40/45/4
f 11/16/4 12/17/4 39/44/4
f 40/45/4 11/16/4 39/44/4
f 12/17/4 13/18/4 37/42/4
f 13/18/4 14/19/4 36/41/4
f 14/19/4 15/20/4 36/41/4
f 15/20/4 16/21/4 35/40/4
f 36/41/4 15/20/4 35/40/4
f 16/21/4 17/22/4 33/38/4
f 17/22/4 18/23/4 32/37/4
f 18/23/4 19/24/4 32/37/4
f 19/24/4 20/25/4 31/36/4
f 32/37/4 19/24/4 31/36/4
f 20/25/4 21/26/4 29/34/4
f 21/26/4 22/27/4 28/33/4
f 22/27/4 23/28/4 28/33/4
f 23/28/4 24/29/4 27/32/4
f 28/33/4 23/28/4 27/32/4
f 24/29/4 25/30/4 26/31/4
f 26/31/4 27/32/4 24/29/4
f 28/33/4 29/34/4 21/26/4
f 29/34/4 30/35/4 20/25/4
f 30/35/4 31/36/4 20/25/4
f 32/37/4 33/38/4 17/22/4
f 33/38/4 34/39/4 16/21/4
f 34/39/4 35/40/4 16/21/4
f 36/41/4 37/42/4 13/18/4
f 37/42/4 38/43/4 12/17/4
